<svg xmlns="http://www.w3.org/2000/svg" viewBox="0 0 100 100">
  <rect width="100" height="100" fill="#18170f"></rect>
  <path d="M233 8Q143 8 88.500-43.500Q34-95 34-181L34-181L34-519Q34-605 88.500-656.500Q143-708 233-708L233-708Q323-708 378-656Q433-604 433-518L433-518L433-480Q433-475 429.500-471.500Q426-468 421-468L421-468L304-468Q299-468 295.500-471.500Q292-475 292-480L292-480L292-520Q292-550 276-568.500Q260-587 233-587L233-587Q207-587 191-568.500Q175-550 175-520L175-520L175-180Q175-150 191-131.500Q207-113 233-113L233-113Q260-113 276-131.500Q292-150 292-180L292-180L292-260Q292-265 287-265L287-265L243-265Q238-265 234.500-268.500Q231-272 231-277L231-277L231-366Q231-371 234.500-374.500Q238-378 243-378L243-378L421-378Q426-378 429.500-374.500Q433-371 433-366L433-366L433-181Q433-95 378-43.500Q323 8 233 8L233 8Z" fill="#f6f4f0" transform="translate(23.911 89.106) scale(0.11173)"></path>
</svg>